# xmcd
#
# Track frame offsets: 
#        150
#        35271
#        66945
#        94271
#        124135
#        150048
#        177426
#        208744
#        244433
#
# Disc length: 3598 seconds
#
# Revision: 2
# Processed by: cddbd v1.5.2PL0 Copyright (c) Steve Scherf et al.
# Submitted via: ExactAudioCopyFreeDBPlugin 1.0
#
DISCID=780e0c09
DTITLE=Harmonie - Wellness and Entspannung CD4
DYEAR=2000
DGENRE=Wellness
TTITLE0=Manfred Schreiner - Gleichgewicht und Harmonie
TTITLE1=Manfred Schreiner - Zärtliche Berührungen
TTITLE2=Manfred Schreiner - Urlaub für die Sinne
TTITLE3=Manfred Schreiner - Seelenentspannung
TTITLE4=Manfred Schreiner - erholsame Klänge
TTITLE5=Manfred Schreiner - Zauber der Gefühle
TTITLE6=Manfred Schreiner - Innerer Friede
TTITLE7=Manfred Schreiner - Harmonie und Liebe
TTITLE8=Manfred Schreiner - Gleichklang der Gedanken
EXTD=
EXTT0=
EXTT1=
EXTT2=
EXTT3=
EXTT4=
EXTT5=
EXTT6=
EXTT7=
EXTT8=
PLAYORDER=
